<?xml version="1.0" encoding="UTF-8"?>
<svg version="1.1" xmlns="http://www.w3.org/2000/svg" width="500" height="500">
<path d="M0 0 C165 0 330 0 500 0 C500 165 500 330 500 500 C335 500 170 500 0 500 C0 335 0 170 0 0 Z " fill="#FEFEFE" transform="translate(0,0)"/>
<path d="M0 0 C0.66 0 1.32 0 2 0 C3.20871119 3.8919417 4.41719492 7.78395395 5.62548828 11.67602539 C6.03460891 12.99375206 6.44378647 14.31146106 6.85302734 15.62915039 C9.24427243 23.32872457 11.62641548 31.03100261 13.99511719 38.73754883 C15.81979723 44.66155256 17.66075126 50.5805066 19.5 56.5 C21.62769799 63.34784713 23.75492086 70.19574966 25.859375 77.05078125 C27.35188742 81.9081096 28.85801028 86.76106628 30.36987305 91.61239624 C31.53335922 95.34620606 32.69468366 99.08068701 33.85595703 102.81518555 C34.45820685 104.75004878 35.06141632 106.68461355 35.66552734 108.61889648 C36.54525542 111.43653175 37.42141365 114.25525533 38.296875 117.07421875 C38.56868591 117.9418132 38.84049683 118.80940765 39.12054443 119.70329285 C39.36790344 120.50205338 39.61526245 121.3008139 39.87011719 122.1237793 C40.08899597 122.8262529 40.30787476 123.5287265 40.53338623 124.25248718 C41 126 41 126 41 128 C83.57 128 126.14 128 170 128 C164.38095238 133.61904762 164.38095238 133.61904762 161.64453125 135.62109375 C161.03158203 136.07419922 160.41863281 136.52730469 159.78710938 136.99414062 C159.13548828 137.47044922 158.48386719 137.94675781 157.8125 138.4375 C151.8105859 142.87902789 145.87972208 147.39795378 140 152 C133.73495616 156.89734656 127.41575335 161.71017579 121.0390625 166.4609375 C115.20251827 170.82104367 109.45930615 175.29588928 103.71972656 179.7824707 C98.13040132 184.14303541 92.47764067 188.4103705 86.79296875 192.64550781 C80.10100347 197.64420309 73.54197435 202.80730786 67 208 C69.11141559 216.93719249 71.67563295 225.68159761 74.4375 234.4375 C75.20717406 236.89448652 75.97670623 239.35151749 76.74609375 241.80859375 C77.12685059 243.02144043 77.50760742 244.23428711 77.89990234 245.48388672 C79.23564328 249.75315903 80.55070086 254.02856767 81.86352539 258.30493164 C83.26809368 262.87166441 84.68054798 267.43593283 86.09375 272 C86.36957413 272.89086807 86.64539825 273.78173615 86.92958069 274.69960022 C87.78630068 277.46642692 88.64313115 280.23321939 89.5 283 C90.6355498 286.66662546 91.77095573 290.33329542 92.90625 294 C93.1779451 294.87721207 93.4496402 295.75442413 93.72956848 296.65821838 C95.23753363 301.52894437 96.73740639 306.40203087 98.23046875 311.27734375 C99.29340709 314.73985284 100.38010928 318.19082432 101.51953125 321.62890625 C101.73673828 322.29083984 101.95394531 322.95277344 102.17773438 323.63476562 C102.61327229 324.95746079 103.05638855 326.27767742 103.50585938 327.59570312 C104.67053661 331.18946255 105.11461416 333.40442286 104 337 C102.65421875 335.90945313 102.65421875 335.90945313 101.28125 334.796875 C93.33264108 328.38215142 85.27282678 322.152299 77.08203125 316.05078125 C72.96684686 312.983349 68.88611528 309.87234059 64.8125 306.75 C58.38284065 301.82298083 51.94490605 296.90706329 45.5 292 C39.75736684 287.62763768 34.01725305 283.25216691 28.29003906 278.85961914 C26.90460196 277.79898435 25.51727327 276.74081518 24.12792969 275.68530273 C20.57244667 272.98376599 17.05122792 270.2493123 13.56640625 267.45703125 C12.12763493 266.32548171 10.68883389 265.19396997 9.25 264.0625 C8.59410889 263.52334961 7.93821777 262.98419922 7.26245117 262.42871094 C5.21621399 260.76999782 5.21621399 260.76999782 2 259 C-2.48741787 259.67037645 -5.8023529 262.99602152 -9.25 265.8125 C-10.50305107 266.81617276 -11.75699549 267.81873097 -13.01171875 268.8203125 C-13.66575684 269.34399414 -14.31979492 269.86767578 -14.99365234 270.40722656 C-18.31616577 273.04486073 -21.68837948 275.61642017 -25.0625 278.1875 C-25.76407227 278.72286377 -26.46564453 279.25822754 -27.18847656 279.80981445 C-29.45818147 281.54093245 -31.72899785 283.27058423 -34 285 C-35.7174702 286.3085645 -37.43491735 287.61715927 -39.15234375 288.92578125 C-41.83519605 290.96987092 -44.51815174 293.0138242 -47.20141602 295.05737305 C-53.31654433 299.71505593 -59.42517353 304.38113017 -65.52929688 309.05322266 C-69.48451592 312.07950781 -73.44361156 315.10062202 -77.40625 318.1171875 C-78.33501953 318.82423828 -79.26378906 319.53128906 -80.22070312 320.25976562 C-82.01595418 321.62607405 -83.81150586 322.9919876 -85.60742188 324.35742188 C-91.09903622 328.53684288 -96.56135353 332.75187849 -102 337 C-103.58944435 333.02763185 -102.29144521 329.83108312 -101.0078125 325.97265625 C-100.78657715 325.27984055 -100.5653418 324.58702484 -100.33740234 323.87321472 C-99.60929329 321.59984631 -98.86713088 319.33132554 -98.125 317.0625 C-97.61721972 315.48505647 -97.11055729 313.90725269 -96.60498047 312.32910156 C-95.83145782 309.9156556 -95.05701576 307.5025388 -94.27859497 305.09066772 C-91.8278686 297.49719105 -89.47077231 289.87641246 -87.125 282.25 C-84.92983286 275.13895564 -82.71392909 268.04419198 -80.3125 261 C-78.11224683 254.51188143 -76.22695687 247.95339345 -74.38793945 241.35571289 C-73.00924403 236.43422045 -71.55553466 231.54990224 -69.9921875 226.68359375 C-69.6607373 225.64138672 -69.32928711 224.59917969 -68.98779297 223.52539062 C-68.34008974 221.50063768 -67.68064588 219.47959487 -67.00830078 217.46289062 C-66.57106689 216.08713867 -66.57106689 216.08713867 -66.125 214.68359375 C-65.85945313 213.87462646 -65.59390625 213.06565918 -65.3203125 212.23217773 C-64.91293595 209.39327237 -65.38068893 208.34457743 -67 206 C-68.78420473 204.32736436 -68.78420473 204.32736436 -70.9375 202.8203125 C-71.74082764 202.22847168 -72.54415527 201.63663086 -73.37182617 201.02685547 C-74.23912354 200.39924316 -75.1064209 199.77163086 -76 199.125 C-77.83046418 197.77744929 -79.65987017 196.42846012 -81.48828125 195.078125 C-82.41334473 194.39685547 -83.3384082 193.71558594 -84.29150391 193.01367188 C-88.305622 190.02931582 -92.24998943 186.95934705 -96.1875 183.875 C-104.04780145 177.73195954 -111.95848489 171.65813661 -119.89111328 165.60888672 C-123.42986888 162.90914147 -126.96469284 160.20425827 -130.5 157.5 C-131.91015168 156.42186902 -133.32030793 155.34374403 -134.73046875 154.265625 C-137.63007464 152.04839703 -140.52834971 149.82944351 -143.42578125 147.609375 C-144.88799358 146.48954775 -146.35023282 145.36975563 -147.8125 144.25 C-148.51431396 143.71213867 -149.21612793 143.17427734 -149.93920898 142.62011719 C-153.18966193 140.13288053 -156.44783979 137.65816758 -159.734375 135.21875 C-160.30051514 134.79819336 -160.86665527 134.37763672 -161.44995117 133.94433594 C-162.95516573 132.82949724 -164.46378336 131.71925734 -165.97265625 130.609375 C-166.64167969 130.07828125 -167.31070313 129.5471875 -168 129 C-168 128.67 -168 128.34 -168 128 C-125.43 128 -82.86 128 -39 128 C-37.32900067 122.43000222 -35.67438299 116.88037218 -34.11206055 111.28320312 C-30.34253932 97.82588957 -26.13843515 84.50814082 -21.94061279 71.18022156 C-20.45726255 66.4667459 -18.98901666 61.74879124 -17.53125 57.02734375 C-17.33411407 56.38902618 -17.13697815 55.75070862 -16.93386841 55.0930481 C-16.35173432 53.20786888 -15.76961705 51.32268447 -15.1875 49.4375 C-12.9706394 42.26435211 -10.73530258 35.10637317 -8.3125 28 C-5.17644302 18.77823805 -2.61691514 9.37942499 0 0 Z " fill="#122782" transform="translate(249,1)"/>
<path d="M0 0 C4.29 0 8.58 0 13 0 C13.01401855 1.63412842 13.01401855 1.63412842 13.02832031 3.30126953 C13.06832981 7.36076054 13.13411829 11.41950241 13.20751953 15.47851562 C13.23566584 17.23199812 13.25691185 18.98560599 13.27099609 20.73925781 C13.29251427 23.26692599 13.33920702 25.79309684 13.390625 28.3203125 C13.39185364 29.09867462 13.39308228 29.87703674 13.39434814 30.6789856 C13.53268483 35.87268743 14.57146952 38.88062296 18 43 C21.73838354 45.4922557 24.67980874 45.38890176 29 45 C31.82632926 44.53712479 31.82632926 44.53712479 34 43 C37.12141186 38.05265956 37.46523153 33.98296143 37.51171875 28.3203125 C37.52966995 27.50754852 37.54762115 26.69478455 37.56611633 25.85739136 C37.61998358 23.2799792 37.65403836 20.7027497 37.6875 18.125 C37.72069399 16.36976638 37.75518557 14.61455679 37.79101562 12.859375 C37.87569611 8.57304897 37.94261897 4.28677488 38 0 C42.29 0 46.58 0 51 0 C51.09984488 5.06789586 51.1719226 10.13520301 51.21972656 15.20385742 C51.23968148 16.92336009 51.26685558 18.64279633 51.30175781 20.36206055 C51.73529242 42.28743601 51.73529242 42.28743601 45.38525391 49.94799805 C39.60342042 55.65354221 32.4439065 57.1480688 24.5625 57.5 C17.19225184 57.29335753 11.41232194 55.39103927 6.12109375 50.1328125 C0.66736357 43.37807199 -0.30779143 36.64776719 -0.1953125 28.22265625 C-0.1924826 27.41130722 -0.18965271 26.59995819 -0.18673706 25.76402283 C-0.17562663 23.19669247 -0.15053971 20.62972322 -0.125 18.0625 C-0.11495836 16.31185403 -0.10583459 14.56120254 -0.09765625 12.81054688 C-0.07571734 8.54022746 -0.0412516 4.27017475 0 0 Z " fill="#0F2790" transform="translate(142,374)"/>
<path d="M0 0 C13.86 0 27.72 0 42 0 C42 3.3 42 6.6 42 10 C32.43 10 22.86 10 13 10 C13 14.29 13 18.58 13 23 C21.58 23 30.16 23 39 23 C39 26.3 39 29.6 39 33 C30.42 33 21.84 33 13 33 C13 37.29 13 41.58 13 46 C22.9 46 32.8 46 43 46 C43 49.3 43 52.6 43 56 C28.81 56 14.62 56 0 56 C0 37.52 0 19.04 0 0 Z " fill="#0D2690" transform="translate(68,374)"/>
<path d="M0 0 C0.9590625 0.680625 0.9590625 0.680625 1.9375 1.375 C0.9475 4.345 -0.0425 7.315 -1.0625 10.375 C-6.8125 9.5 -6.8125 9.5 -9.0625 8.375 C-11.55684832 8.22470323 -14.00475298 8.14377891 -16.5 8.125 C-17.18126953 8.104375 -17.86253906 8.08375 -18.56445312 8.0625 C-22.53560444 8.02969248 -22.53560444 8.02969248 -26.0234375 9.734375 C-27.26185769 11.40523909 -27.26185769 11.40523909 -27.25 13.875 C-26.23290543 16.68547708 -26.23290543 16.68547708 -23 17.875 C-20.74653895 18.60430194 -18.47620878 19.2573238 -16.19824219 19.90527344 C-14.80507143 20.30417559 -13.41359102 20.70901914 -12.02368164 21.11914062 C-10.61605069 21.5324253 -9.20374919 21.93019313 -7.78686523 22.31054688 C-1.62815782 24.10531481 1.44486376 27.13604563 4.9375 32.375 C5.39694562 37.98023661 5.14217806 41.56798292 1.9375 46.375 C-4.36816374 52.68066374 -10.49702996 54.54236302 -19.3125 54.8125 C-26.66819306 54.67260193 -35.60512915 53.83237085 -41.0625 48.375 C-40.73592446 44.61938133 -39.9455622 41.63897448 -38.0625 38.375 C-37.0415625 38.808125 -37.0415625 38.808125 -36 39.25 C-35.030625 39.62125 -34.06125 39.9925 -33.0625 40.375 C-32.093125 40.74625 -31.12375 41.1175 -30.125 41.5 C-24.35391132 43.11232189 -17.98384409 42.88084347 -12.0625 42.375 C-11.0725 41.715 -10.0825 41.055 -9.0625 40.375 C-8.8122843 37.29134129 -8.8122843 37.29134129 -9.0625 34.375 C-14.42714506 32.70151559 -19.76079393 31.21136326 -25.25 30 C-31.80470634 28.37396102 -36.11475493 26.26520236 -40 20.5 C-41.64621183 15.65820049 -41.67200619 12.06807276 -39.9375 7.25 C-31.30936769 -5.97980287 -13.16869246 -6.98746947 0 0 Z " fill="#122A92" transform="translate(264.0625,376.625)"/>
<path d="M0 0 C3.96 0 7.92 0 12 0 C12.33 10.56 12.66 21.12 13 32 C15.64 29.36 18.28 26.72 21 24 C22.4608656 22.66716018 23.93456073 21.34770964 25.4375 20.0625 C27.77124158 18.08787121 27.77124158 18.08787121 30 16 C32.53049402 15.92686433 35.03304837 15.90752473 37.5625 15.9375 C38.27341797 15.94201172 38.98433594 15.94652344 39.71679688 15.95117188 C41.47790013 15.96299136 43.23896036 15.98092737 45 16 C40.62308709 21.29836826 35.92766684 26.00135598 30.87890625 30.66796875 C30.25886719 31.43753906 29.63882812 32.20710938 29 33 C29.35573994 36.28410739 30.70944512 38.19264002 32.80078125 40.6796875 C33.36603516 41.36160156 33.93128906 42.04351562 34.51367188 42.74609375 C35.4040918 43.79990234 35.4040918 43.79990234 36.3125 44.875 C40.1424674 49.44720914 43.80077644 53.96023547 47 59 C41.6854002 59.84020022 36.2183577 60.6685966 31 59 C27.19556134 56.05158624 24.78490959 52.07932348 22.234375 48.0625 C21.49703125 47.051875 20.7596875 46.04125 20 45 C16.21118779 44.62873911 16.21118779 44.62873911 14.29296875 46.14453125 C12.53739027 48.66386593 12.49161842 50.64248686 12.3125 53.6875 C12.1578125 56.3171875 12.1578125 56.3171875 12 59 C8.04 59 4.08 59 0 59 C0 39.53 0 20.06 0 0 Z " fill="#0D2690" transform="translate(277,371)"/>
<path d="M0 0 C0.495 0.99 0.495 0.99 1 2 C0.22265625 3.9453125 0.22265625 3.9453125 -0.9375 6.125 C-1.50791016 7.21167969 -1.50791016 7.21167969 -2.08984375 8.3203125 C-2.39019531 8.87460937 -2.69054687 9.42890625 -3 10 C-4.11375 9.505 -4.11375 9.505 -5.25 9 C-10.5121552 7.59675861 -15.5857837 7.84230438 -21 8 C-21.33 9.65 -21.66 11.3 -22 13 C-20.13794922 13.36351562 -20.13794922 13.36351562 -18.23828125 13.734375 C-16.59620128 14.07217431 -14.9542824 14.41075738 -13.3125 14.75 C-12.08756836 14.98589844 -12.08756836 14.98589844 -10.83789062 15.2265625 C-5.95026533 16.25553625 -2.63728265 17.35554322 1 21 C2.85495056 24.70990112 2.44709128 28.95063037 2 33 C-0.47343817 37.65006376 -4.09017497 39.49677553 -9 41 C-11.99275935 41.40505835 -14.92134183 41.42081506 -17.9375 41.375 C-18.69740234 41.38660156 -19.45730469 41.39820313 -20.24023438 41.41015625 C-25.76320746 41.3818575 -29.99636578 40.38161807 -35 38 C-36 35 -36 35 -34.5625 31.8125 C-34.046875 30.884375 -33.53125 29.95625 -33 29 C-31.80375 29.33 -30.6075 29.66 -29.375 30 C-22.96624895 31.45606824 -16.53380544 31.16729516 -10 31 C-10 29.35 -10 27.7 -10 26 C-11.15757812 25.82984375 -12.31515625 25.6596875 -13.5078125 25.484375 C-15.04699798 25.24035779 -16.58605394 24.99552264 -18.125 24.75 C-19.26582031 24.58564453 -19.26582031 24.58564453 -20.4296875 24.41796875 C-25.47673057 23.5912979 -28.93029068 22.29040328 -33 19 C-35.70522436 14.94216346 -35.52032211 11.75842963 -35 7 C-33.35435596 2.64388343 -30.74859674 0.84491059 -26.74609375 -1.21875 C-18.49377718 -4.91106166 -8.07675557 -3.55703578 0 0 Z " fill="#112991" transform="translate(434,389)"/>
<path d="M0 0 C3.96 0 7.92 0 12 0 C12 19.47 12 38.94 12 59 C8.04 59 4.08 59 0 59 C0 39.53 0 20.06 0 0 Z " fill="#0B248F" transform="translate(378,371)"/>
<path d="M0 0 C3.96 0 7.92 0 12 0 C12 19.47 12 38.94 12 59 C8.04 59 4.08 59 0 59 C0 39.53 0 20.06 0 0 Z " fill="#0B248F" transform="translate(354,371)"/>
<path d="M0 0 C3.96 0 7.92 0 12 0 C12 14.19 12 28.38 12 43 C8.04 43 4.08 43 0 43 C0 28.81 0 14.62 0 0 Z " fill="#0B248F" transform="translate(330,387)"/>
<path d="M0 0 C2.875 1.5625 2.875 1.5625 5 4 C5.80740332 8.44071826 5.50331836 10.26790056 2.9375 14 C0 16 0 16 -3.625 16.0625 C-7 15 -7 15 -8.9375 13.375 C-10.43699866 10.02317947 -10.45377473 7.63019782 -10 4 C-7.25657347 -0.1151398 -4.81370572 -0.78591114 0 0 Z " fill="#152D93" transform="translate(212,415)"/>
<path d="M0 0 C2.875 1.5625 2.875 1.5625 5 4 C5.80740332 8.44071826 5.50331836 10.26790056 2.9375 14 C0 16 0 16 -3.625 16.0625 C-7 15 -7 15 -8.9375 13.375 C-10.43699866 10.02317947 -10.45377473 7.63019782 -10 4 C-7.25657347 -0.1151398 -4.81370572 -0.78591114 0 0 Z " fill="#152D93" transform="translate(128,415)"/>
<path d="M0 0 C2.4375 1.0625 2.4375 1.0625 4 3 C4.56988508 6.91795996 4.59460908 9.07240983 2.4375 12.4375 C-0.94217804 14.60396028 -3.05983987 14.56288002 -7 14 C-9.4375 12.375 -9.4375 12.375 -11 10 C-11.60605429 6.36367425 -11.47161336 4.71685231 -9.4375 1.625 C-6.08716465 -0.6085569 -3.9518567 -0.49398209 0 0 Z " fill="#152D93" transform="translate(339,367)"/>
<path d="M0 0 C2 2 2 2 2.3125 4.9375 C2 8 2 8 0.875 9.875 C-1.88090884 11.52854531 -3.85075452 11.39365568 -7 11 C-8.875 9.875 -8.875 9.875 -10 8 C-10.4375 5 -10.4375 5 -10 2 C-6.94783427 -1.63912068 -4.35383535 -1.23043173 0 0 Z " fill="#1D3497" transform="translate(255,468)"/>
<path d="M0 0 C0.66 0 1.32 0 2 0 C2.33 1.65 2.66 3.3 3 5 C5.31 5 7.62 5 10 5 C9.01 5.804375 9.01 5.804375 8 6.625 C5.68975201 8.89958592 5.68975201 8.89958592 5.75 12.25 C5.87375 13.61125 5.87375 13.61125 6 15 C4.9275 14.79375 3.855 14.5875 2.75 14.375 C-0.87619096 14.0123809 -2.08291076 14.01637931 -5 16 C-4.7525 14.9275 -4.505 13.855 -4.25 12.75 C-3.57571378 8.97254504 -3.57571378 8.97254504 -5.9375 6.5625 C-6.618125 6.046875 -7.29875 5.53125 -8 5 C-5.69 5 -3.38 5 -1 5 C-0.67 3.35 -0.34 1.7 0 0 Z " fill="#E6CA5D" transform="translate(271,219)"/>
<path d="M0 0 C0.66 0 1.32 0 2 0 C2.33 1.65 2.66 3.3 3 5 C5.31 5 7.62 5 10 5 C9.01 5.804375 9.01 5.804375 8 6.625 C5.68975201 8.89958592 5.68975201 8.89958592 5.75 12.25 C5.87375 13.61125 5.87375 13.61125 6 15 C4.9275 14.79375 3.855 14.5875 2.75 14.375 C-0.87619096 14.0123809 -2.08291076 14.01637931 -5 16 C-4.7525 14.9275 -4.505 13.855 -4.25 12.75 C-3.57571378 8.97254504 -3.57571378 8.97254504 -5.9375 6.5625 C-6.618125 6.046875 -7.29875 5.53125 -8 5 C-5.69 5 -3.38 5 -1 5 C-0.67 3.35 -0.34 1.7 0 0 Z " fill="#E6CA5D" transform="translate(227,219)"/>
<path d="M0 0 C0.66 0.33 1.32 0.66 2 1 C2.625 3.5625 2.625 3.5625 3 6 C5.31 6 7.62 6 10 6 C8.625 7.5 8.625 7.5 7 9 C6.34 9 5.68 9 5 9 C5.33 11.31 5.66 13.62 6 16 C5.113125 15.608125 4.22625 15.21625 3.3125 14.8125 C-0.00303974 13.62820892 -0.00303974 13.62820892 -2.875 15.375 C-3.57625 15.91125 -4.2775 16.4475 -5 17 C-4.7525 15.9275 -4.505 14.855 -4.25 13.75 C-3.57571378 9.97254504 -3.57571378 9.97254504 -5.9375 7.5625 C-6.618125 7.046875 -7.29875 6.53125 -8 6 C-5.69 6 -3.38 6 -1 6 C-0.67 4.02 -0.34 2.04 0 0 Z " fill="#E4C95D" transform="translate(299,175)"/>
<path d="M0 0 C0.66 0 1.32 0 2 0 C2.33 1.65 2.66 3.3 3 5 C5.31 5 7.62 5 10 5 C9.01 5.804375 9.01 5.804375 8 6.625 C5.68975201 8.89958592 5.68975201 8.89958592 5.75 12.25 C5.87375 13.61125 5.87375 13.61125 6 15 C4.02 14.34 2.04 13.68 0 13 C-0.99 13.99 -1.98 14.98 -3 16 C-3.66 15.67 -4.32 15.34 -5 15 C-4.7525 14.0925 -4.505 13.185 -4.25 12.25 C-3.61740673 8.91162152 -3.61740673 8.91162152 -5.9375 6.625 C-6.618125 6.08875 -7.29875 5.5525 -8 5 C-5.69 5 -3.38 5 -1 5 C-0.67 3.35 -0.34 1.7 0 0 Z " fill="#E7CB5C" transform="translate(249,228)"/>
<path d="M0 0 C0.66 0.33 1.32 0.66 2 1 C2 2.32 2 3.64 2 5 C4.31 5 6.62 5 9 5 C9 5.66 9 6.32 9 7 C7.35 7.66 5.7 8.32 4 9 C4.66 11.31 5.32 13.62 6 16 C5.113125 15.443125 4.22625 14.88625 3.3125 14.3125 C1.6728125 13.6628125 1.6728125 13.6628125 0 13 C-2.87391821 14.17274994 -2.87391821 14.17274994 -5 16 C-4.34 13.69 -3.68 11.38 -3 9 C-5.475 8.01 -5.475 8.01 -8 7 C-8 6.34 -8 5.68 -8 5 C-5.69 5 -3.38 5 -1 5 C-0.67 3.35 -0.34 1.7 0 0 Z " fill="#E4C95D" transform="translate(209,199)"/>
<path d="M0 0 C2 3 2 3 2 6 C4.31 6 6.62 6 9 6 C8.01 6.804375 8.01 6.804375 7 7.625 C4.68975201 9.89958592 4.68975201 9.89958592 4.75 13.25 C4.87375 14.61125 4.87375 14.61125 5 16 C4.0925 15.62875 3.185 15.2575 2.25 14.875 C-0.88097015 13.69640701 -0.88097015 13.69640701 -3.375 14.875 C-3.91125 15.24625 -4.4475 15.6175 -5 16 C-4.67 13.69 -4.34 11.38 -4 9 C-6.475 8.01 -6.475 8.01 -9 7 C-9 6.67 -9 6.34 -9 6 C-6.69 6 -4.38 6 -2 6 C-1.34 4.02 -0.68 2.04 0 0 Z " fill="#E6CA5D" transform="translate(200,175)"/>
<path d="M0 0 C0.66 0.33 1.32 0.66 2 1 C2 2.32 2 3.64 2 5 C4.31 5 6.62 5 9 5 C9 5.66 9 6.32 9 7 C7.35 7.66 5.7 8.32 4 9 C4.66 11.31 5.32 13.62 6 16 C5.113125 15.443125 4.22625 14.88625 3.3125 14.3125 C1.6728125 13.6628125 1.6728125 13.6628125 0 13 C-2.87391821 14.17274994 -2.87391821 14.17274994 -5 16 C-4.34 13.69 -3.68 11.38 -3 9 C-5.475 8.01 -5.475 8.01 -8 7 C-8 6.34 -8 5.68 -8 5 C-5.69 5 -3.38 5 -1 5 C-0.67 3.35 -0.34 1.7 0 0 Z " fill="#E4C95D" transform="translate(209,150)"/>
<path d="M0 0 C0.66 0.33 1.32 0.66 2 1 C2 2.32 2 3.64 2 5 C4.31 5 6.62 5 9 5 C9 5.66 9 6.32 9 7 C7.35 7.66 5.7 8.32 4 9 C4.66 11.31 5.32 13.62 6 16 C5.113125 15.443125 4.22625 14.88625 3.3125 14.3125 C1.6728125 13.6628125 1.6728125 13.6628125 0 13 C-2.87391821 14.17274994 -2.87391821 14.17274994 -5 16 C-4.34 13.69 -3.68 11.38 -3 9 C-5.475 8.01 -5.475 8.01 -8 7 C-8 6.34 -8 5.68 -8 5 C-5.69 5 -3.38 5 -1 5 C-0.67 3.35 -0.34 1.7 0 0 Z " fill="#E5C95D" transform="translate(290,199)"/>
<path d="M0 0 C0.66 0.33 1.32 0.66 2 1 C2 2.32 2 3.64 2 5 C4.31 5 6.62 5 9 5 C9 5.66 9 6.32 9 7 C7.35 7.66 5.7 8.32 4 9 C4.66 11.31 5.32 13.62 6 16 C5.113125 15.443125 4.22625 14.88625 3.3125 14.3125 C1.6728125 13.6628125 1.6728125 13.6628125 0 13 C-2.87391821 14.17274994 -2.87391821 14.17274994 -5 16 C-4.34 13.69 -3.68 11.38 -3 9 C-5.475 8.01 -5.475 8.01 -8 7 C-8 6.34 -8 5.68 -8 5 C-5.69 5 -3.38 5 -1 5 C-0.67 3.35 -0.34 1.7 0 0 Z " fill="#E5C95D" transform="translate(290,150)"/>
<path d="M0 0 C0.66 0 1.32 0 2 0 C2.33 1.98 2.66 3.96 3 6 C5.31 6 7.62 6 10 6 C9.01 6.804375 9.01 6.804375 8 7.625 C5.68975201 9.89958592 5.68975201 9.89958592 5.75 13.25 C5.87375 14.61125 5.87375 14.61125 6 16 C5.0925 15.62875 4.185 15.2575 3.25 14.875 C0.11902985 13.69640701 0.11902985 13.69640701 -2.375 14.875 C-2.91125 15.24625 -3.4475 15.6175 -4 16 C-3.9175 15.0925 -3.835 14.185 -3.75 13.25 C-3.68975201 9.89958592 -3.68975201 9.89958592 -6 7.625 C-6.66 7.08875 -7.32 6.5525 -8 6 C-5.69 6 -3.38 6 -1 6 C-0.67 4.02 -0.34 2.04 0 0 Z " fill="#ECCF5C" transform="translate(249,123)"/>
<path d="M0 0 C0.66 0 1.32 0 2 0 C2.33 1.98 2.66 3.96 3 6 C5.31 6 7.62 6 10 6 C8.625 7.5 8.625 7.5 7 9 C6.34 9 5.68 9 5 9 C5.33 11.31 5.66 13.62 6 16 C5.0925 15.62875 4.185 15.2575 3.25 14.875 C0.11902985 13.69640701 0.11902985 13.69640701 -2.375 14.875 C-2.91125 15.24625 -3.4475 15.6175 -4 16 C-3.67 13.69 -3.34 11.38 -3 9 C-5.475 8.01 -5.475 8.01 -8 7 C-8 6.67 -8 6.34 -8 6 C-5.69 6 -3.38 6 -1 6 C-0.67 4.02 -0.34 2.04 0 0 Z " fill="#ECCF5C" transform="translate(271,132)"/>
<path d="M0 0 C0.66 0 1.32 0 2 0 C2.33 1.98 2.66 3.96 3 6 C5.31 6 7.62 6 10 6 C8.625 7.5 8.625 7.5 7 9 C6.34 9 5.68 9 5 9 C5.33 11.31 5.66 13.62 6 16 C5.0925 15.62875 4.185 15.2575 3.25 14.875 C0.11902985 13.69640701 0.11902985 13.69640701 -2.375 14.875 C-2.91125 15.24625 -3.4475 15.6175 -4 16 C-3.67 13.69 -3.34 11.38 -3 9 C-5.475 8.01 -5.475 8.01 -8 7 C-8 6.67 -8 6.34 -8 6 C-5.69 6 -3.38 6 -1 6 C-0.67 4.02 -0.34 2.04 0 0 Z " fill="#EDD05B" transform="translate(227,132)"/>
<path d="M0 0 C2.9375 0.8125 2.9375 0.8125 4.9375 3.8125 C4.9375 4.8025 4.9375 5.7925 4.9375 6.8125 C2.2975 6.8125 -0.3425 6.8125 -3.0625 6.8125 C-3.0625 7.4725 -3.0625 8.1325 -3.0625 8.8125 C-0.7525 8.8125 1.5575 8.8125 3.9375 8.8125 C3.6075 9.8025 3.2775 10.7925 2.9375 11.8125 C-3.38847793 12.17057422 -3.38847793 12.17057422 -6.0625 10.75 C-7.69628851 7.58453476 -6.91517564 5.16229714 -6.0625 1.8125 C-3.0625 -0.1875 -3.0625 -0.1875 0 0 Z " fill="#203698" transform="translate(194.0625,467.1875)"/>
<path d="M0 0 C0.66 0.33 1.32 0.66 2 1 C1.67 1.99 1.34 2.98 1 4 C-0.134375 3.979375 -1.26875 3.95875 -2.4375 3.9375 C-5.81575674 3.58422523 -5.81575674 3.58422523 -7 5 C-7.16666667 7.5 -7.16666667 7.5 -7 10 C-5.81575674 11.41577477 -5.81575674 11.41577477 -2.4375 11.0625 C-0.7359375 11.0315625 -0.7359375 11.0315625 1 11 C1.33 11.99 1.66 12.98 2 14 C-1.13871188 15.56935594 -3.53855822 15.35201103 -7 15 C-10 12.9375 -10 12.9375 -12 10 C-12.06584389 6.18105459 -11.85572029 4.02028188 -9.375 1.0625 C-6.13276702 -0.38797265 -3.51055666 -0.26004123 0 0 Z " fill="#213899" transform="translate(241,464)"/>
<path d="M0 0 C1.20272819 2.40545638 1.10071472 3.94996953 1.0625 6.625 C1.05347656 7.44226563 1.04445313 8.25953125 1.03515625 9.1015625 C1.02355469 9.72804688 1.01195312 10.35453125 1 11 C-0.45792884 11.05399736 -1.91642712 11.09279177 -3.375 11.125 C-4.18710937 11.14820313 -4.99921875 11.17140625 -5.8359375 11.1953125 C-8 11 -8 11 -10 9 C-10 7 -10 7 -9 5 C-5.9375 3.75 -5.9375 3.75 -3 3 C-4.65 3 -6.3 3 -8 3 C-8.33 2.01 -8.66 1.02 -9 0 C-5.88173308 -1.55913346 -3.32926126 -0.66585225 0 0 Z " fill="#1B3296" transform="translate(325,468)"/>
<path d="M0 0 C0.66 0.99 1.32 1.98 2 3 C-0.93806897 3.97935632 -2.95277638 4 -6 4 C-7.28322547 5.0595877 -7.28322547 5.0595877 -7.125 7.5 C-7.28322547 9.9404123 -7.28322547 9.9404123 -6 11 C-3.66702567 11.04092937 -1.33294775 11.04241723 1 11 C1 11.99 1 12.98 1 14 C0 15 0 15 -3.8125 15.375 C-7.16358878 15.32075576 -7.82012937 15.14477392 -10.5625 12.9375 C-12.44610971 9.08838451 -12.207644 7.07579849 -11 3 C-7.92483773 -0.66653963 -4.56322195 -0.50702466 0 0 Z " fill="#1F3698" transform="translate(161,464)"/>
<path d="M0 0 C6.0546875 -0.1953125 6.0546875 -0.1953125 8 0 C10 2 10 2 10.1953125 4.1640625 C10.13020833 6.44270833 10.06510417 8.72135417 10 11 C6.7 11 3.4 11 0 11 C-0.625 8.625 -0.625 8.625 -1 6 C1.1385485 3.8614515 2.13275314 3.57344937 5 3 C3.35 3 1.7 3 0 3 C0 2.01 0 1.02 0 0 Z " fill="#3E52A6" transform="translate(166,468)"/>
<path d="M0 0 C1.423125 -0.061875 2.84625 -0.12375 4.3125 -0.1875 C5.51326172 -0.23970703 5.51326172 -0.23970703 6.73828125 -0.29296875 C9 0 9 0 10.78125 1.21875 C12.35672932 3.52137362 12.30765272 4.92398744 12.1875 7.6875 C12.16042969 8.49574219 12.13335937 9.30398438 12.10546875 10.13671875 C12.07066406 10.75160156 12.03585937 11.36648438 12 12 C11.01 12 10.02 12 9 12 C8.67 9.36 8.34 6.72 8 4 C7.01 4 6.02 4 5 4 C4.67 6.64 4.34 9.28 4 12 C2.68 12 1.36 12 0 12 C0 8.04 0 4.08 0 0 Z " fill="#3247A1" transform="translate(329,467)"/>
<path d="M0 0 C3.5 0.25 3.5 0.25 5.5 2.25 C5.5 3.57 5.5 4.89 5.5 6.25 C2.86 6.25 0.22 6.25 -2.5 6.25 C-2.5 6.91 -2.5 7.57 -2.5 8.25 C-0.19 8.25 2.12 8.25 4.5 8.25 C4.17 9.24 3.84 10.23 3.5 11.25 C-2.125 11.5 -2.125 11.5 -5.5 9.25 C-5.8125 5.75 -5.8125 5.75 -5.5 2.25 C-3.5 0.25 -3.5 0.25 0 0 Z " fill="#3D51A6" transform="translate(206.5,467.75)"/>
<path d="M0 0 C1.32 0 2.64 0 4 0 C4 2.97 4 5.94 4 9 C5.32 8.67 6.64 8.34 8 8 C8.33 5.69 8.66 3.38 9 1 C9.99 1 10.98 1 12 1 C12 4.63 12 8.26 12 12 C10.576875 12.061875 9.15375 12.12375 7.6875 12.1875 C6.48673828 12.23970703 6.48673828 12.23970703 5.26171875 12.29296875 C3 12 3 12 1.21875 10.78125 C-0.35672932 8.47862638 -0.30765272 7.07601256 -0.1875 4.3125 C-0.16042969 3.50425781 -0.13335937 2.69601562 -0.10546875 1.86328125 C-0.07066406 1.24839844 -0.03585937 0.63351562 0 0 Z " fill="#3449A1" transform="translate(285,467)"/>
<path d="M0 0 C1 1 1 1 1.09765625 3.28515625 C1.08605469 4.20167969 1.07445312 5.11820312 1.0625 6.0625 C1.05347656 6.98160156 1.04445313 7.90070313 1.03515625 8.84765625 C1.02355469 9.55792969 1.01195312 10.26820313 1 11 C0.01 11 -0.98 11 -2 11 C-2.33 8.36 -2.66 5.72 -3 3 C-3.99 3 -4.98 3 -6 3 C-6.33 5.64 -6.66 8.28 -7 11 C-7.99 11 -8.98 11 -10 11 C-10 7.37 -10 3.74 -10 0 C-5.66473162 -0.86705368 -4.00869538 -1.11352649 0 0 Z " fill="#152D93" transform="translate(270,468)"/>
<path d="M0 0 C1.32 0 2.64 0 4 0 C4 0.99 4 1.98 4 3 C4.66 3 5.32 3 6 3 C6 3.99 6 4.98 6 6 C5.34 6 4.68 6 4 6 C4 7.65 4 9.3 4 11 C4.99 11 5.98 11 7 11 C7 11.99 7 12.98 7 14 C4.625 14.125 4.625 14.125 2 14 C0 12 0 12 -0.125 8.875 C-0.08375 7.92625 -0.0425 6.9775 0 6 C-0.66 6 -1.32 6 -2 6 C-2 5.01 -2 4.02 -2 3 C-1.34 3 -0.68 3 0 3 C0 2.01 0 1.02 0 0 Z " fill="#3146A0" transform="translate(344,465)"/>
<path d="M0 0 C1.32 0 2.64 0 4 0 C4 0.99 4 1.98 4 3 C4.66 3 5.32 3 6 3 C6 3.99 6 4.98 6 6 C5.34 6 4.68 6 4 6 C4 7.65 4 9.3 4 11 C4.99 11 5.98 11 7 11 C7 11.99 7 12.98 7 14 C4.625 14.125 4.625 14.125 2 14 C0 12 0 12 -0.125 8.875 C-0.08375 7.92625 -0.0425 6.9775 0 6 C-0.66 6 -1.32 6 -2 6 C-2 5.01 -2 4.02 -2 3 C-1.34 3 -0.68 3 0 3 C0 2.01 0 1.02 0 0 Z " fill="#3146A0" transform="translate(307,465)"/>
<path d="M0 0 C2.33944736 0.28730055 4.6739143 0.61936779 7 1 C7 1.66 7 2.32 7 3 C5.02 3 3.04 3 1 3 C1 3.66 1 4.32 1 5 C3.97 5.495 3.97 5.495 7 6 C7 7.65 7 9.3 7 11 C4.04335481 12.4783226 1.25770263 12.06032783 -2 12 C-2 11.01 -2 10.02 -2 9 C0.97 9.495 0.97 9.495 4 10 C4 9.34 4 8.68 4 8 C2.02 7.34 0.04 6.68 -2 6 C-1.125 1.125 -1.125 1.125 0 0 Z " fill="#203798" transform="translate(276,467)"/>
<path d="M0 0 C1.32 0 2.64 0 4 0 C4 5.28 4 10.56 4 16 C2.68 16 1.36 16 0 16 C0 10.72 0 5.44 0 0 Z " fill="#354AA2" transform="translate(300,463)"/>
<path d="M0 0 C-0.33 1.32 -0.66 2.64 -1 4 C-1.99 4 -2.98 4 -4 4 C-4 6.64 -4 9.28 -4 12 C-5.32 12 -6.64 12 -8 12 C-8 8.37 -8 4.74 -8 1 C-2.25 0 -2.25 0 0 0 Z " fill="#3449A2" transform="translate(186,467)"/>
<path d="M0 0 C1.0828125 0.4640625 1.0828125 0.4640625 2.1875 0.9375 C4.80307309 1.92560539 7.25118982 2.5287754 10 3 C10 3.33 10 3.66 10 4 C7.69 4.66 5.38 5.32 3 6 C2.67 7.65 2.34 9.3 2 11 C1.67 10.01 1.34 9.02 1 8 C0.01 8 -0.98 8 -2 8 C-2 6.35 -2 4.7 -2 3 C-1.34 3 -0.68 3 0 3 C0 2.01 0 1.02 0 0 Z " fill="#F1F3F9" transform="translate(313,468)"/>
<path d="M0 0 C0 1.32 0 2.64 0 4 C-0.99 4.33 -1.98 4.66 -3 5 C-3.33 7.31 -3.66 9.62 -4 12 C-4.99 12 -5.98 12 -7 12 C-7 8.37 -7 4.74 -7 1 C-2 0 -2 0 0 0 Z " fill="#193095" transform="translate(222,467)"/>
<path d="M0 0 C4.75 0.75 4.75 0.75 7 3 C7.1953125 5.1640625 7.1953125 5.1640625 7.125 7.625 C7.10695313 8.44226563 7.08890625 9.25953125 7.0703125 10.1015625 C7.03550781 11.04128906 7.03550781 11.04128906 7 12 C6.01 12 5.02 12 4 12 C3.87625 10.081875 3.87625 10.081875 3.75 8.125 C3.54130069 5.94666582 3.54130069 5.94666582 3 4 C1.07935207 2.4100567 1.07935207 2.4100567 -1 2 C-0.67 1.34 -0.34 0.68 0 0 Z " fill="#172F94" transform="translate(334,467)"/>
<path d="M0 0 C1.4540625 0.0309375 1.4540625 0.0309375 2.9375 0.0625 C2.9375 0.3925 2.9375 0.7225 2.9375 1.0625 C1.2875 1.0625 -0.3625 1.0625 -2.0625 1.0625 C-0.4125 1.3925 1.2375 1.7225 2.9375 2.0625 C2.6075 3.7125 2.2775 5.3625 1.9375 7.0625 C-0.4375 7.1875 -0.4375 7.1875 -3.0625 7.0625 C-3.7225 6.4025 -4.3825 5.7425 -5.0625 5.0625 C-4.45789299 1.07209375 -4.2025713 0.08576676 0 0 Z " fill="#596AB2" transform="translate(320.0625,471.9375)"/>
<path d="M0 0 C2.875 0.3125 2.875 0.3125 6 1 C8 4 8 4 8 7 C5.03 6.67 2.06 6.34 -1 6 C-0.34 4.68 0.32 3.36 1 2 C0.67 1.34 0.34 0.68 0 0 Z " fill="#5667B1" transform="translate(191,467)"/>
<path d="M0 0 C0.99 0 1.98 0 3 0 C3 3.63 3 7.26 3 11 C1.35 10.67 -0.3 10.34 -2 10 C-1.34 6.7 -0.68 3.4 0 0 Z " fill="#0C258F" transform="translate(294,468)"/>
<path d="M0 0 C0.66 0.99 1.32 1.98 2 3 C4.55183404 4.20450304 4.55183404 4.20450304 7 5 C7 5.66 7 6.32 7 7 C5.88625 6.95875 4.7725 6.9175 3.625 6.875 C-0.04366025 6.58878141 -0.04366025 6.58878141 -2 9 C-2 6.36 -2 3.72 -2 1 C-1.34 0.67 -0.68 0.34 0 0 Z " fill="#CFD4E9" transform="translate(273,470)"/>
<path d="M0 0 C3.375 -0.125 3.375 -0.125 7 0 C9 2 9 2 9 6 C8.01 6 7.02 6 6 6 C5.67 5.01 5.34 4.02 5 3 C2.69 3.33 0.38 3.66 -2 4 C-1.34 2.68 -0.68 1.36 0 0 Z " fill="#152D93" transform="translate(203,468)"/>
<path d="M0 0 C1.65 0.33 3.3 0.66 5 1 C4.67 2.65 4.34 4.3 4 6 C2.35 5.67 0.7 5.34 -1 5 C-0.67 3.35 -0.34 1.7 0 0 Z " fill="#E4E7F2" transform="translate(249,470)"/>
<path d="M0 0 C0 2.31 0 4.62 0 7 C-0.763125 6.525625 -1.52625 6.05125 -2.3125 5.5625 C-4.96410548 3.89893903 -4.96410548 3.89893903 -8 3 C-8 2.34 -8 1.68 -8 1 C-1.125 0 -1.125 0 0 0 Z " fill="#EBEDF5" transform="translate(285,469)"/>
<path d="M0 0 C0.66 0 1.32 0 2 0 C2 1.32 2 2.64 2 4 C3.65 4.33 5.3 4.66 7 5 C7 5.33 7 5.66 7 6 C4.69 6 2.38 6 0 6 C-0.38218767 4.34385343 -0.71395102 2.67542976 -1 1 C-0.67 0.67 -0.34 0.34 0 0 Z " fill="#1D3497" transform="translate(166,473)"/>
</svg>
